# xmcd CD database file
#
# Track frame offsets:
#	182
#	26555
#	46807
#	80162
#	96975
#	124060
#	142232
#	163735
#
# Disc length: 2510 seconds
#
# Revision: 1
# Processed by: cddbd v1.5.1PL0 Copyright (c) Steve Scherf et al.
# Submitted via: CDex 1.51
#
DISCID=6e09cc08
DTITLE=Various Artist - Lamejor Salsa Del Mundo
DYEAR=1900
DGENRE=Salsa
TTITLE0=Cheo Feliciano - En Casa De Cheo
TTITLE1=Celia Cruz - Mo Me Cambie Camino
TTITLE2=Roberto Torres - El Viejo
TTITLE3=Louie Ramirez - Pa Cuco Yo
TTITLE4=Ruben Blades - Ligia Elena
TTITLE5=Celia Cruz - A Bailar La Plena
TTITLE6=El Gran Combo - Goyito Sabater
TTITLE7=Fania All Stars - Bamboleo
EXTD=
EXTT0=
EXTT1=
EXTT2=
EXTT3=
EXTT4=
EXTT5=
EXTT6=
EXTT7=
PLAYORDER=
